<?xml version="1.0" encoding="UTF-8" standalone="no"?>
<!-- Created with Inkscape (http://www.inkscape.org/) -->

<svg
   width="100mm"
   height="100mm"
   viewBox="0 0 100 100"
   version="1.1"
   id="svg6240"
   sodipodi:docname="cmu-db-logo-barrel.svg"
   inkscape:version="1.3.2 (091e20e, 2023-11-25)"
   xmlns:inkscape="http://www.inkscape.org/namespaces/inkscape"
   xmlns:sodipodi="http://sodipodi.sourceforge.net/DTD/sodipodi-0.dtd"
   xmlns="http://www.w3.org/2000/svg"
   xmlns:svg="http://www.w3.org/2000/svg">
  <sodipodi:namedview
     id="namedview6242"
     pagecolor="#505050"
     bordercolor="#ffffff"
     borderopacity="1"
     inkscape:showpageshadow="0"
     inkscape:pageopacity="0"
     inkscape:pagecheckerboard="1"
     inkscape:deskcolor="#505050"
     inkscape:document-units="mm"
     showgrid="false"
     inkscape:zoom="0.3951817"
     inkscape:cx="207.49949"
     inkscape:cy="-86.036372"
     inkscape:window-width="1512"
     inkscape:window-height="815"
     inkscape:window-x="0"
     inkscape:window-y="38"
     inkscape:window-maximized="0"
     inkscape:current-layer="g1224" />
  <defs
     id="defs6237" />
  <g
     inkscape:label="Layer 1"
     inkscape:groupmode="layer"
     id="layer1"
     transform="translate(154.79277,-85.597111)">
    <g
       id="g1224"
       style="fill:#c41230;fill-opacity:1">
      <g
         id="g4260"
         transform="matrix(0.48902117,0,0,0.48902117,-168.46327,-86.202396)"
         style="fill:#c41230;fill-opacity:1">
        <path
           id="path3048"
           style="fill:#c41230;fill-opacity:1"
           d="m 130.5522,362.64016 c -23.55166,0 -44.869994,2.87881 -60.542287,7.64334 -7.836146,2.38228 -14.266096,5.2147 -18.947205,8.57961 -3.939554,2.83186 -6.799659,6.22588 -7.609527,10.11504 -0.03235,-0.2863 -0.05389,-0.57368 -0.05389,-0.8623 v 1.12648 c -0.118639,0.64787 -0.185985,1.30762 -0.185985,1.98243 0,0.64289 0.07464,1.27361 0.185985,1.89683 v 28.03405 c 0,12.40598 30.127281,22.74736 70.096199,25.07836 4.439,0.259 8.78639,-1.32487 12.02139,-4.37487 3.23597,-3.049 5.08288,-7.30069 5.08288,-11.74769 v -1.53226 h -0.001 c 0,-8.15098 -6.38697,-14.84759 -14.52795,-15.24759 -9.80868,-0.4823 -19.051563,-1.44933 -27.45918,-2.80668 -11.920618,-2.11701 -21.922882,-5.10365 -28.838217,-8.54262 -3.706887,-1.84342 -6.51862,-3.81863 -8.279495,-5.69367 -1.760876,-1.87504 -2.443164,-3.51088 -2.443164,-5.06386 0,-2.24732 1.557362,-4.8446 5.419978,-7.62115 3.862617,-2.77656 9.795548,-5.47213 17.236356,-7.73422 14.881615,-4.52418 35.773012,-7.39079 58.845172,-7.39079 23.07321,0 43.9641,2.8666 58.84624,7.39079 7.44105,2.2621 13.37572,4.95765 17.23847,7.73422 3.86273,2.77656 5.41998,5.37386 5.41998,7.62115 0,2.55511 -1.72925,5.39878 -5.98216,8.33973 -1.76478,1.22037 -3.94624,2.40709 -6.46509,3.53582 -6.96071,2.63871 -15.63828,4.86758 -25.54755,6.54118 -7.86899,1.32899 -13.5996,8.20808 -13.4596,16.18807 l 0.003,0.21558 c 0.084,4.79599 2.29605,9.30581 6.03606,12.30881 3.73999,3.003 8.62128,4.18577 13.32327,3.23677 22.85298,-4.60999 37.83523,-12.33181 37.83523,-21.0818 v -27.88505 c 0.0559,-0.46117 0.0941,-0.92628 0.0941,-1.39911 0,-0.46291 -0.0376,-0.91713 -0.0941,-1.36741 v -2.38822 c 0,0.5013 -0.0519,0.99899 -0.14899,1.49317 -0.81427,-3.88263 -3.67204,-7.27118 -7.60636,-10.09919 -4.68124,-3.3649 -11.1108,-6.19733 -18.94721,-8.57961 -15.67278,-4.76453 -36.99278,-7.64333 -60.54546,-7.64334 z m 86.72283,74.51017 c 0,14.12399 -39.03957,25.56975 -87.20153,25.56975 -0.935,0 -1.86488,-0.004 -2.79188,-0.0127 -4.30799,-0.04 -8.45427,1.64193 -11.51627,4.67392 -3.06099,3.031 -4.78494,7.15972 -4.78594,11.46871 l 0.001,0.74289 c -0.003,8.85499 7.12908,16.05909 15.98307,16.15109 1.032,0.01 2.06896,0.0159 3.10996,0.0159 48.16096,0 87.20153,-11.44681 87.20153,-25.5708 z m -173.932806,0.97325 v 33.04507 c 0,6.66199 8.688759,12.7298 22.924745,17.2818 4.796995,1.53299 10.039262,0.681 14.105258,-2.291 4.064996,-2.973 6.46586,-7.70819 6.46086,-12.74419 v -0.037 c -0.008,-7.42 -5.090141,-13.88032 -12.296134,-15.65232 -19.069981,-4.69099 -31.194729,-11.73138 -31.194729,-19.60238 z m 174.459056,50.08593 c 0,9.48199 -17.59716,17.75847 -43.73814,22.17446 -7.88399,1.331 -13.60059,8.1952 -13.45959,16.1902 v 0.0306 c 0.085,4.84 2.33403,9.39289 6.11002,12.42189 3.776,3.02899 8.70081,4.22724 13.4448,3.26424 22.74398,-4.61299 37.64291,-12.3156 37.64291,-21.04059 z m -174.400935,10e-4 v 33.03978 c 0,12.38499 30.023176,22.71269 69.890145,25.06568 4.49098,0.266 8.89009,-1.33525 12.16509,-4.41925 3.27499,-3.084 5.14312,-7.38496 5.14312,-11.88295 v -0.49878 c 0,-8.58899 -6.72132,-15.68179 -15.29831,-16.12679 -40.862964,-2.11999 -71.900045,-12.58571 -71.900045,-25.17769 z" />
      </g>
    </g>
  </g>
</svg>
