<?xml version="1.0" encoding="UTF-8" standalone="no"?>
<!-- Created with Inkscape (http://www.inkscape.org/) -->

<svg
   width="423.33334mm"
   height="92.962952mm"
   viewBox="0 0 423.33334 92.962953"
   version="1.1"
   id="svg6240"
   sodipodi:docname="cmudb-logo-white.svg"
   inkscape:version="1.3.2 (091e20e, 2023-11-25)"
   xmlns:inkscape="http://www.inkscape.org/namespaces/inkscape"
   xmlns:sodipodi="http://sodipodi.sourceforge.net/DTD/sodipodi-0.dtd"
   xmlns="http://www.w3.org/2000/svg"
   xmlns:svg="http://www.w3.org/2000/svg">
  <sodipodi:namedview
     id="namedview6242"
     pagecolor="#505050"
     bordercolor="#ffffff"
     borderopacity="1"
     inkscape:showpageshadow="0"
     inkscape:pageopacity="0"
     inkscape:pagecheckerboard="1"
     inkscape:deskcolor="#505050"
     inkscape:document-units="mm"
     showgrid="false"
     inkscape:zoom="0.21124247"
     inkscape:cx="856.83528"
     inkscape:cy="-416.5829"
     inkscape:window-width="1512"
     inkscape:window-height="815"
     inkscape:window-x="0"
     inkscape:window-y="38"
     inkscape:window-maximized="0"
     inkscape:current-layer="layer1" />
  <defs
     id="defs6237" />
  <g
     inkscape:label="Layer 1"
     inkscape:groupmode="layer"
     id="layer1"
     transform="translate(154.79277,-85.597111)">
    <g
       id="g1224"
       style="fill:#c41230;fill-opacity:1">
      <g
         id="g4260"
         transform="matrix(0.48902117,0,0,0.48902117,-175.92499,-91.741604)"
         style="fill:#c41230;fill-opacity:1">
        <path
           id="path3048"
           style="fill:#c41230;fill-opacity:1"
           d="M 130.5522 362.64016 C 107.00054 362.64016 85.682206 365.51897 70.009913 370.2835 C 62.173767 372.66578 55.743817 375.4982 51.062708 378.86311 C 47.123154 381.69497 44.263049 385.08899 43.453181 388.97815 C 43.420827 388.69185 43.399288 388.40447 43.399288 388.11585 L 43.399288 389.24233 C 43.280649 389.8902 43.213303 390.54995 43.213303 391.22476 C 43.213303 391.86765 43.287946 392.49837 43.399288 393.12159 L 43.399288 421.15564 C 43.399288 433.56162 73.526569 443.903 113.49549 446.234 C 117.93449 446.493 122.28188 444.90913 125.51688 441.85913 C 128.75285 438.81013 130.59976 434.55844 130.59976 430.11144 L 130.59976 428.57918 L 130.5987 428.57918 C 130.5987 420.4282 124.21173 413.73159 116.07075 413.33159 C 106.26207 412.84929 97.019184 411.88226 88.611567 410.52491 C 76.690949 408.4079 66.688685 405.42126 59.77335 401.98229 C 56.066463 400.13887 53.25473 398.16366 51.493855 396.28862 C 49.732979 394.41358 49.050691 392.77774 49.050691 391.22476 C 49.050691 388.97744 50.608053 386.38016 54.470669 383.60361 C 58.333286 380.82705 64.266217 378.13148 71.707025 375.86939 C 86.58864 371.34521 107.48004 368.4786 130.5522 368.4786 C 153.62541 368.4786 174.5163 371.3452 189.39844 375.86939 C 196.83949 378.13149 202.77416 380.82704 206.63691 383.60361 C 210.49964 386.38017 212.05689 388.97747 212.05689 391.22476 C 212.05689 393.77987 210.32764 396.62354 206.07473 399.56449 C 204.30995 400.78486 202.12849 401.97158 199.60964 403.10031 C 192.64893 405.73902 183.97136 407.96789 174.06209 409.64149 C 166.1931 410.97048 160.46249 417.84957 160.60249 425.82956 L 160.60566 426.04514 C 160.68966 430.84113 162.90171 435.35095 166.64172 438.35395 C 170.38171 441.35695 175.263 442.53972 179.96499 441.59072 C 202.81797 436.98073 217.80022 429.25891 217.80022 420.50892 L 217.80022 392.62387 C 217.85612 392.1627 217.89427 391.69759 217.89427 391.22476 C 217.89427 390.76185 217.85671 390.30763 217.80022 389.85735 L 217.80022 387.46913 C 217.80022 387.97043 217.74828 388.46812 217.65123 388.9623 C 216.83696 385.07967 213.97919 381.69112 210.04487 378.86311 C 205.36363 375.49821 198.93407 372.66578 191.09766 370.2835 C 175.42488 365.51897 154.10488 362.64017 130.5522 362.64016 z M 217.27503 437.15033 C 217.27503 451.27432 178.23546 462.72008 130.0735 462.72008 C 129.1385 462.72008 128.20862 462.7164 127.28162 462.7074 C 122.97363 462.6674 118.82735 464.34933 115.76535 467.38132 C 112.70436 470.41232 110.98041 474.54104 110.97941 478.85003 L 110.98047 479.59292 C 110.97747 488.44791 118.10955 495.65201 126.96354 495.74401 C 127.99554 495.75401 129.0325 495.75986 130.0735 495.75986 C 178.23446 495.75986 217.27503 484.31305 217.27503 470.18906 L 217.27503 437.15033 z M 43.342224 438.12358 L 43.342224 471.16865 C 43.342224 477.83064 52.030983 483.89845 66.266969 488.45045 C 71.063964 489.98344 76.306231 489.13145 80.372227 486.15945 C 84.437223 483.18645 86.838087 478.45126 86.833087 473.41526 L 86.833087 473.37828 C 86.825087 465.95828 81.742946 459.49796 74.536953 457.72596 C 55.466972 453.03497 43.342224 445.99458 43.342224 438.12358 z M 217.80128 488.20951 C 217.80128 497.6915 200.20412 505.96798 174.06314 510.38397 C 166.17915 511.71497 160.46255 518.57917 160.60355 526.57417 L 160.60355 526.60481 C 160.68855 531.44481 162.93758 535.9977 166.71357 539.0267 C 170.48957 542.05569 175.41438 543.25394 180.15837 542.29094 C 202.90235 537.67795 217.80128 529.97534 217.80128 521.25035 L 217.80128 488.20951 z M 43.400345 488.21057 L 43.400345 521.25035 C 43.400345 533.63534 73.423521 543.96304 113.29049 546.31603 C 117.78147 546.58203 122.18058 544.98078 125.45558 541.89678 C 128.73057 538.81278 130.5987 534.51182 130.5987 530.01383 L 130.5987 529.51505 C 130.5987 520.92606 123.87738 513.83326 115.30039 513.38826 C 74.437426 511.26827 43.400345 500.80255 43.400345 488.21057 z " />
      </g>
      <g
         id="g1328"
         transform="matrix(1.3607181,0,0,1.3607181,-308.13284,-391.83552)"
         style="fill:#c41230;fill-opacity:1">
        <polygon
           class="cls-1"
           points="191.23,15.79 191.23,14.8 197.74,14.8 197.74,28.88 200.09,28.88 200.09,29.81 190.7,29.81 190.7,28.88 193.05,28.88 193.05,15.79 "
           id="polygon881"
           style="fill:#c41230;fill-opacity:1"
           transform="translate(104.54079,348.02444)" />
        <path
           class="cls-1"
           d="m 209.59079,353.72444 h -0.85 c 0,0.73 -0.41,1 -1.14,1 -1.45,0.04 -3.56,-1.7 -6.06,-1.7 -7.07,0 -11.34,7 -11.34,13.11 0,6.11 4.07,12.27 10.9,12.27 4.13,0 5.69,-2 6.79,-2 0.72,0 0.86,0.64 0.86,1.41 h 0.93 v -8.43 h -0.93 l -0.21,1.17 c -0.48,2.8 -2.65,6.93 -7.1,6.93 -3.93,0 -5.45,-3.41 -5.45,-11.79 0,-8.79 2.07,-11.75 5.55,-11.75 3.94,0 6.64,4.41 7.19,7.92 h 0.85 z"
           id="path883"
           style="fill:#c41230;fill-opacity:1" />
        <path
           class="cls-1"
           d="m 221.68079,373.78444 c -0.06,1.81 -1.08,3.28 -2.68,3.28 -2.32,0 -2.42,-1.95 -2.42,-3.44 0,-1.8 0.21,-3 2.42,-3.23 l 2.68,-0.27 z m 6.21,1.13 c 0,0.88 -0.58,1.9 -1,1.9 -0.62,0 -0.76,-0.64 -0.76,-1.7 v -7.82 c 0,-3.88 -3.64,-4.83 -7.14,-4.83 -3.5,0 -5.88,1.66 -5.88,3.57 a 2,2 0 0 0 2.21,2.21 1.93,1.93 0 0 0 2.07,-2 c 0,-1.73 -1.8,-1.75 -1.8,-1.79 0,-0.78 2,-1 3.16,-1 2.55,0 2.89,0.94 2.89,3 v 2.77 l -3.33,0.28 c -3.1,0.23 -6.46,1.05 -6.46,4.59 0,3 2.65,4.15 5.27,4.15 1.33,0 3.67,-0.51 4.56,-2.14 a 3.48,3.48 0 0 0 3.4,2.14 c 2.21,0 3.64,-1.33 3.64,-3.33 z"
           id="path885"
           style="fill:#c41230;fill-opacity:1" />
        <path
           class="cls-1"
           d="m 340.30079,370.02444 5.64,-16.11 h 7.77 v 1 h -2.22 v 22 h 2.22 v 0.94 h -9.34 v -0.94 h 2.27 v -21.8 h -0.1 l -7.92,22.72 h -0.92 l -8.16,-23.13 v 0 19.32 c 0,2.76 0.72,2.9 2.55,2.9 h 0.11 v 0.94 h -5.89 v -0.94 0 c 1.95,0 2.31,-1.13 2.31,-2.59 v -19.46 h -2.31 v -1 h 8.54 z"
           id="path889"
           style="fill:#c41230;fill-opacity:1" />
        <path
           class="cls-1"
           d="m 359.13079,368.68444 v -2.29 c 0,-2.28 1,-3 2.14,-3 1.64,0 2.15,1.12 2.15,3 v 2.29 z m 0,0.92 h 9.41 c 0,-3.67 -3.44,-7.21 -7,-7.14 a 7.78,7.78 0 0 0 -7.48,8.06 7.46,7.46 0 0 0 7.58,7.72 c 4.19,0 6.26,-2.58 7,-5.95 h -0.93 c -0.74,3.16 -2.4,5 -5.06,5 -3.16,0 -3.5,-2.48 -3.5,-4.79 z"
           id="path891"
           style="fill:#c41230;fill-opacity:1" />
        <polygon
           class="cls-1"
           points="271.08,28.85 271.08,5.92 264.04,5.92 264.04,6.78 266.39,6.78 266.39,28.85 264.04,28.85 264.04,29.82 273.43,29.82 273.43,28.85 "
           id="polygon895"
           style="fill:#c41230;fill-opacity:1"
           transform="translate(104.54079,348.02444)" />
        <polygon
           class="cls-1"
           points="281.13,28.85 281.13,5.92 274.08,5.92 274.08,6.78 276.43,6.78 276.43,28.85 274.08,28.85 274.08,29.82 283.47,29.82 283.47,28.85 "
           id="polygon897"
           style="fill:#c41230;fill-opacity:1"
           transform="translate(104.54079,348.02444)" />
        <path
           class="cls-1"
           d="m 398.81079,373.71444 c 0,2.56 -1.06,3.61 -2.79,3.61 -1.73,0 -2.79,-1.05 -2.79,-3.61 v -6.69 c 0,-2.55 1.05,-3.61 2.79,-3.61 1.74,0 2.79,1.06 2.79,3.61 z m 5.3,-3.36 a 8.1,8.1 0 1 0 -8.09,7.89 7.79,7.79 0 0 0 8.09,-7.89"
           id="path899"
           style="fill:#c41230;fill-opacity:1" />
        <path
           class="cls-1"
           d="m 268.83079,368.67444 v -2.28 c 0,-2.28 1,-3 2.14,-3 1.63,0 2.14,1.13 2.14,3 v 2.28 z m 0,0.93 h 9.39 c 0,-3.68 -3.44,-7.21 -7,-7.15 a 7.78,7.78 0 0 0 -7.49,8.07 7.46,7.46 0 0 0 7.59,7.72 c 4.18,0 6.26,-2.59 7,-6 h -0.93 c -0.75,3.17 -2.41,5 -5.06,5 -3.16,0 -3.5,-2.48 -3.5,-4.8 z"
           id="path913"
           style="fill:#c41230;fill-opacity:1" />
        <path
           class="cls-1"
           d="m 309.90079,368.67444 v -2.28 c 0,-2.28 1,-3 2.14,-3 1.14,0 2.14,0.71 2.14,3 v 2.28 z m 0,0.93 h 9.39 c 0,-3.68 -3.44,-7.21 -7,-7.15 a 7.78,7.78 0 0 0 -7.48,8.07 7.46,7.46 0 0 0 7.58,7.72 c 4.19,0 6.26,-2.59 7,-6 h -0.93 c -0.74,3.17 -2.4,5 -5.06,5 -3.16,0 -3.5,-2.48 -3.5,-4.8 z"
           id="path915"
           style="fill:#c41230;fill-opacity:1" />
        <path
           class="cls-1"
           d="m 411.14079,362.87444 v 2.75 0 a 6.19,6.19 0 0 1 5.52,-3.28 c 3.23,0 4.79,1.72 4.79,5.39 v 9.19 h 2.35 v 0.91 h -9 v -0.91 h 1.94 v -10.45 c 0,-2.28 -0.63,-2.71 -1.87,-2.71 -1.85,0 -3.45,2.92 -3.75,4.18 v 9 h 2 v 0.91 h -9.05 v -0.93 h 2.35 v -13.13 h -2.35 v -0.92 z"
           id="path919"
           style="fill:#c41230;fill-opacity:1" />
        <path
           class="cls-1"
           d="m 261.34079,376.91444 v -9.18 c 0,-3.68 -1.57,-5.39 -4.8,-5.39 a 6.17,6.17 0 0 0 -5.51,3.28 v 0 -2.76 h -7 v 0.92 h 2.35 v 13.13 h -2.35 v 0.92 h 9.05 v -0.92 h -2 v -9 c 0.29,-1.26 1.89,-4.17 3.75,-4.17 1.24,0 1.87,0.42 1.87,2.71 v 10.46 h -1.94 v 0.92 h 9 v -0.92 z"
           id="path921"
           style="fill:#c41230;fill-opacity:1" />
        <path
           class="cls-1"
           d="m 297.61079,358.17444 a 2.34,2.34 0 1 0 2.34,-2.35 2.33,2.33 0 0 0 -2.34,2.35"
           id="path923"
           style="fill:#c41230;fill-opacity:1" />
        <path
           class="cls-1"
           d="m 240.54079,362.30444 a 4.88,4.88 0 0 0 -4.49,3.19 h -0.07 v -2.59 h -7 v 1 h 2.35 v 13.04 h -2.35 v 0.94 h 10.17 v -0.94 h -3.13 v -7.32 c 0,-2.19 0.57,-4.43 2,-5.67 a 0.32,0.32 0 0 1 0.3,0 0.3,0.3 0 0 1 0.15,0.29 v 0 a 3.5,3.5 0 0 0 -0.18,1 2.2,2.2 0 0 0 2.31,2.21 2.46,2.46 0 0 0 2.59,-2.49 2.48,2.48 0 0 0 -2.65,-2.66 z"
           id="path927"
           style="fill:#c41230;fill-opacity:1" />
        <path
           class="cls-1"
           d="m 291.76079,363.40444 c 0.07,0 0.16,-0.05 0.21,0 a 0.15,0.15 0 0 1 0,0.19 v 0 a 1.46,1.46 0 0 0 0.9,2.18 1.47,1.47 0 0 0 1.82,-1.43 1.6,1.6 0 0 0 -0.8,-1.33 2.78,2.78 0 0 0 -1.5,-0.39 4,4 0 0 0 -2.5,1.07 v 0 l -0.49,-0.31 a 7.24,7.24 0 0 0 -3.76,-0.91 c -2.86,0 -5.92,1.87 -5.92,5 a 4.42,4.42 0 0 0 2.82,4.1 v 0.07 a 3.71,3.71 0 0 0 -3.4,3.91 3.24,3.24 0 0 0 2.21,3.41 v 0.06 a 4,4 0 0 0 -2.93,3.37 c 0,2.52 3,4.46 6.74,4.46 4.73,0 7.82,-3.2 7.82,-7.35 0,-3.3 -1.63,-4.8 -5,-4.73 h -5.65 c -0.85,0 -1.42,0 -1.42,-0.95 0,-0.95 1.36,-1.8 2.63,-1.8 a 2.74,2.74 0 0 1 0.69,0.2 4.21,4.21 0 0 0 1.4,0.21 c 2.92,0 6,-1.67 6,-4.9 a 5,5 0 0 0 -1.24,-3.22 0.11,0.11 0 0 1 0,-0.17 6.42,6.42 0 0 1 0.88,-0.58 2,2 0 0 1 0.4,-0.18 z m -4.52,15.62 c 3.41,0 4.31,0.14 4.31,2.21 0,2.49 -3,4.77 -6.48,4.77 -3.06,0 -4.53,-1.88 -4.6,-3.51 a 4.88,4.88 0 0 1 1.67,-3.47 z m 0.58,-11.62 c 0,3.95 -0.92,4.08 -2.14,4.08 -1.22,0 -2.08,-0.26 -2.08,-4.19 0,-2.75 0.31,-3.93 2.08,-3.93 1.6,0 2.11,0.11 2.14,4 z"
           id="path929"
           style="fill:#c41230;fill-opacity:1" />
      </g>
      <g
         aria-label="Database Group"
         id="text1332"
         style="font-size:43.0338px;line-height:1.25;letter-spacing:-0.0165572px;fill:#c41230;stroke-width:0.466309;fill-opacity:1">
        <path
           d="m -23.178152,152.56748 q 0,7.73263 -4.055431,11.70401 -4.055431,3.95037 -11.914142,3.95037 h -7.354409 v -30.72041 h 8.299975 q 7.354409,0 11.178702,3.8453 3.845305,3.84531 3.845305,11.22073 z m -2.332398,0.0841 q 0,-6.59796 -3.362016,-9.91795 -3.341002,-3.341 -9.833895,-3.341 h -5.652388 v 26.93815 h 5.085048 q 13.763251,0 13.763251,-13.6792 z"
           style="font-weight:300;font-family:'Open Sans';-inkscape-font-specification:'Open Sans Light';fill:#c41230;fill-opacity:1"
           id="path6608" />
        <path
           d="m -2.7914786,168.22186 -0.5253149,-3.61416 h -0.1681008 q -1.7230329,2.20632 -3.5511288,3.13087 -1.8070834,0.90354 -4.2865699,0.90354 -3.362015,0 -5.232136,-1.72303 -1.870122,-1.72303 -1.870122,-4.76986 0,-3.341 2.773663,-5.19011 2.794676,-1.84911 8.0688373,-1.95417 l 4.3496076,-0.12608 v -1.5129 q 0,-3.25696 -1.3237936,-4.91695 -1.3237936,-1.66 -4.2655572,-1.66 -3.1729021,0 -6.5769431,1.76506 l -0.777466,-1.80708 q 3.761255,-1.76506 7.4384595,-1.76506 3.7612548,0 5.6103634,1.95417 1.8701211,1.95417 1.8701211,6.09366 v 15.1921 z m -8.4050384,-1.47088 q 3.6561915,0 5.7574512,-2.08025 2.1222723,-2.10126 2.1222723,-5.82049 v -2.24834 l -3.9923934,0.1681 q -4.8118851,0.23114 -6.8711191,1.5129 -2.038222,1.26076 -2.038222,3.95037 0,2.14329 1.302781,3.34101 1.323794,1.1767 3.71923,1.1767 z"
           style="font-weight:300;font-family:'Open Sans';-inkscape-font-specification:'Open Sans Light';fill:#c41230;fill-opacity:1"
           id="path6610" />
        <path
           d="m 12.152935,166.79301 q 1.975184,0 3.446066,-0.33621 v 1.68101 q -1.512907,0.5043 -3.488091,0.5043 -3.0258142,0 -4.4756834,-1.61797 Q 6.20637,165.40617 6.20637,161.9391 V 147.18825 H 2.823342 v -1.21873 l 3.383028,-0.94556 1.0506299,-5.1691 h 1.0716424 v 5.52631 h 6.7030187 v 1.80708 H 8.3286423 v 14.45667 q 0,2.62657 0.9245543,3.88733 0.9245544,1.26076 2.8997384,1.26076 z"
           style="font-weight:300;font-family:'Open Sans';-inkscape-font-specification:'Open Sans Light';fill:#c41230;fill-opacity:1"
           id="path6612" />
        <path
           d="m 34.388716,168.22186 -0.525315,-3.61416 h -0.1681 q -1.723033,2.20632 -3.551129,3.13087 -1.807084,0.90354 -4.28657,0.90354 -3.362016,0 -5.232137,-1.72303 -1.870121,-1.72303 -1.870121,-4.76986 0,-3.341 2.773663,-5.19011 2.794675,-1.84911 8.068837,-1.95417 l 4.349608,-0.12608 v -1.5129 q 0,-3.25696 -1.323794,-4.91695 -1.323793,-1.66 -4.265557,-1.66 -3.172902,0 -6.576943,1.76506 l -0.777466,-1.80708 q 3.761255,-1.76506 7.438459,-1.76506 3.761255,0 5.610364,1.95417 1.870121,1.95417 1.870121,6.09366 v 15.1921 z m -8.405038,-1.47088 q 3.656191,0 5.757451,-2.08025 2.122272,-2.10126 2.122272,-5.82049 v -2.24834 l -3.992393,0.1681 q -4.811885,0.23114 -6.871119,1.5129 -2.038222,1.26076 -2.038222,3.95037 0,2.14329 1.302781,3.34101 1.323794,1.1767 3.71923,1.1767 z"
           style="font-weight:300;font-family:'Open Sans';-inkscape-font-specification:'Open Sans Light';fill:#c41230;fill-opacity:1"
           id="path6614" />
        <path
           d="m 52.947296,144.93991 q 4.790873,0 7.207321,3.02581 2.437461,3.0048 2.437461,8.80428 0,5.69441 -2.563536,8.78326 -2.542525,3.08885 -7.165296,3.08885 -2.437461,0 -4.391633,-1.0086 -1.954171,-1.0086 -3.088851,-2.85771 h -0.189114 l -0.588352,3.44606 h -1.302781 v -32.6956 h 2.080247 v 8.21593 q 0,1.84911 -0.08405,3.40404 l -0.06304,1.78607 h 0.147089 q 1.302781,-2.05924 3.130877,-3.02581 1.849108,-0.96658 4.433657,-0.96658 z m -0.04203,1.89113 q -4.034418,0 -5.778464,2.31138 -1.744045,2.31139 -1.744045,7.62758 v 0.35721 q 0,5.1691 1.807083,7.41745 1.828096,2.24835 5.673401,2.24835 3.740242,0 5.631376,-2.60557 1.891134,-2.62657 1.891134,-7.45947 0,-9.89693 -7.480485,-9.89693 z"
           style="font-weight:300;font-family:'Open Sans';-inkscape-font-specification:'Open Sans Light';fill:#c41230;fill-opacity:1"
           id="path6616" />
        <path
           d="m 82.768622,168.22186 -0.525315,-3.61416 h -0.168101 q -1.723033,2.20632 -3.551129,3.13087 -1.807083,0.90354 -4.286569,0.90354 -3.362016,0 -5.232137,-1.72303 -1.870121,-1.72303 -1.870121,-4.76986 0,-3.341 2.773663,-5.19011 2.794675,-1.84911 8.068837,-1.95417 l 4.349607,-0.12608 v -1.5129 q 0,-3.25696 -1.323793,-4.91695 -1.323794,-1.66 -4.265557,-1.66 -3.172902,0 -6.576943,1.76506 l -0.777466,-1.80708 q 3.761255,-1.76506 7.438459,-1.76506 3.761255,0 5.610363,1.95417 1.870122,1.95417 1.870122,6.09366 v 15.1921 z m -8.405039,-1.47088 q 3.656192,0 5.757452,-2.08025 2.122272,-2.10126 2.122272,-5.82049 v -2.24834 l -3.992393,0.1681 q -4.811885,0.23114 -6.871119,1.5129 -2.038222,1.26076 -2.038222,3.95037 0,2.14329 1.302781,3.34101 1.323793,1.1767 3.719229,1.1767 z"
           style="font-weight:300;font-family:'Open Sans';-inkscape-font-specification:'Open Sans Light';fill:#c41230;fill-opacity:1"
           id="path6618" />
        <path
           d="m 105.84491,162.2753 q 0,3.06784 -2.3324,4.72783 -2.3324,1.63898 -6.618966,1.63898 -4.580746,0 -7.270358,-1.40784 v -2.24835 q 3.446066,1.72304 7.270358,1.72304 3.383026,0 5.127076,-1.11367 1.76506,-1.13468 1.76506,-3.0048 0,-1.72304 -1.40785,-2.89974 -1.38683,-1.17671 -4.580744,-2.31139 -3.425053,-1.23974 -4.811885,-2.12227 -1.386831,-0.90354 -2.101259,-2.01721 -0.693416,-1.13468 -0.693416,-2.75265 0,-2.56354 2.143285,-4.05543 2.164297,-1.49189 6.030615,-1.49189 3.698214,0 7.018204,1.38683 l -0.77746,1.89113 q -3.36202,-1.38683 -6.240744,-1.38683 -2.794675,0 -4.433658,0.92455 -1.638982,0.92456 -1.638982,2.56354 0,1.78607 1.260755,2.85771 1.281769,1.07165 4.979986,2.39544 3.088853,1.11367 4.496693,2.01721 1.40785,0.88253 2.10126,2.01721 0.71443,1.13468 0.71443,2.6686 z"
           style="font-weight:300;font-family:'Open Sans';-inkscape-font-specification:'Open Sans Light';fill:#c41230;fill-opacity:1"
           id="path6620" />
        <path
           d="m 120.93641,168.64211 q -4.97998,0 -7.77466,-3.06783 -2.77366,-3.06784 -2.77366,-8.59416 0,-5.46327 2.68961,-8.74124 2.68962,-3.29897 7.24935,-3.29897 4.03442,0 6.36682,2.81568 2.33239,2.81569 2.33239,7.64859 v 1.68101 H 112.5734 q 0.042,4.70682 2.18531,7.1863 2.1643,2.47949 6.1777,2.47949 1.95418,0 3.42506,-0.27316 1.49189,-0.27317 3.76125,-1.17671 v 1.89114 q -1.93316,0.8405 -3.57214,1.13468 -1.63898,0.31518 -3.61417,0.31518 z m -0.60936,-21.8531 q -3.29898,0 -5.29517,2.18531 -1.9962,2.1643 -2.3324,6.26176 h 14.12046 q 0,-3.97138 -1.72303,-6.19872 -1.72303,-2.24835 -4.76986,-2.24835 z"
           style="font-weight:300;font-family:'Open Sans';-inkscape-font-specification:'Open Sans Light';fill:#c41230;fill-opacity:1"
           id="path6622" />
        <path
           d="m 159.08319,152.73558 h 11.32579 v 14.0154 q -4.45467,1.89113 -10.02301,1.89113 -7.27036,0 -11.15769,-4.09745 -3.86631,-4.11847 -3.86631,-11.64098 0,-4.68581 1.91214,-8.29998 1.93316,-3.63518 5.5053,-5.61036 3.59316,-1.97518 8.23694,-1.97518 5.02201,0 9.0144,1.84911 l -0.86151,1.93315 q -3.9924,-1.8491 -8.27897,-1.8491 -6.07264,0 -9.64478,3.76125 -3.55113,3.74024 -3.55113,10.10706 0,6.93416 3.38303,10.44326 3.38303,3.48809 9.93896,3.48809 4.24454,0 7.20732,-1.19772 v -10.80047 h -9.14048 z"
           style="font-weight:300;font-family:'Open Sans';-inkscape-font-specification:'Open Sans Light';fill:#c41230;fill-opacity:1"
           id="path6624" />
        <path
           d="m 186.57211,144.93991 q 1.44987,0 3.10987,0.29417 l -0.39924,1.9962 q -1.42886,-0.35722 -2.96278,-0.35722 -2.92075,0 -4.79087,2.47949 -1.87012,2.47949 -1.87012,6.26175 v 12.60756 h -2.08025 v -22.84069 h 1.76506 l 0.21013,4.11847 h 0.14708 q 1.40785,-2.52151 3.00481,-3.53012 1.59695,-1.02961 3.86631,-1.02961 z"
           style="font-weight:300;font-family:'Open Sans';-inkscape-font-specification:'Open Sans Light';fill:#c41230;fill-opacity:1"
           id="path6626" />
        <path
           d="m 212.33802,156.77 q 0,5.58935 -2.71063,8.74124 -2.71062,3.13087 -7.48048,3.13087 -3.0048,0 -5.29518,-1.44986 -2.29037,-1.44987 -3.5091,-4.1605 -1.21873,-2.71062 -1.21873,-6.26175 0,-5.58935 2.71063,-8.69922 2.71062,-3.13087 7.43845,-3.13087 4.70683,0 7.37543,3.1729 2.68961,3.15189 2.68961,8.65719 z m -18.02881,0 q 0,4.70682 2.05924,7.35441 2.08024,2.62657 5.86251,2.62657 3.78227,0 5.8415,-2.62657 2.08025,-2.64759 2.08025,-7.35441 0,-4.72784 -2.10126,-7.3334 -2.08025,-2.60556 -5.86252,-2.60556 -3.78226,0 -5.8415,2.60556 -2.03822,2.58455 -2.03822,7.3334 z"
           style="font-weight:300;font-family:'Open Sans';-inkscape-font-specification:'Open Sans Light';fill:#c41230;fill-opacity:1"
           id="path6628" />
        <path
           d="m 220.45334,145.38117 v 14.79287 q 0,3.44606 1.44987,5.02201 1.44987,1.55493 4.4967,1.55493 4.07644,0 5.98859,-2.05923 1.93315,-2.05924 1.93315,-6.70302 v -12.60756 h 2.05924 v 22.84069 h -1.76506 l -0.37823,-3.15189 h -0.12607 q -2.22734,3.57214 -7.92175,3.57214 -7.79567,0 -7.79567,-8.342 v -14.91894 z"
           style="font-weight:300;font-family:'Open Sans';-inkscape-font-specification:'Open Sans Light';fill:#c41230;fill-opacity:1"
           id="path6630" />
        <path
           d="m 253.78375,168.64211 q -5.27416,0 -7.69061,-3.95036 h -0.14709 l 0.063,1.76505 q 0.0841,1.55494 0.0841,3.40405 v 8.69921 h -2.08024 v -33.17889 h 1.76505 l 0.39924,3.25695 h 0.12608 q 2.35341,-3.69821 7.52251,-3.69821 4.62277,0 7.03922,3.04682 2.43746,3.02582 2.43746,8.82529 0,5.63138 -2.56354,8.74124 -2.54252,3.08885 -6.95517,3.08885 z m -0.042,-1.8491 q 3.5091,0 5.42125,-2.60557 1.93316,-2.60556 1.93316,-7.29137 0,-10.06503 -7.27036,-10.06503 -3.9924,0 -5.86252,2.20632 -1.87012,2.18531 -1.87012,7.14428 v 0.67241 q 0,5.35821 1.78607,7.64858 1.80709,2.29038 5.86252,2.29038 z"
           style="font-weight:300;font-family:'Open Sans';-inkscape-font-specification:'Open Sans Light';fill:#c41230;fill-opacity:1"
           id="path6632" />
      </g>
    </g>
  </g>
</svg>
